<svg xmlns="http://www.w3.org/2000/svg" viewBox="0 0 800 500" role="img" aria-label="JackTen: a jack and ten of hearts beside a 13 by 13 starting-hand range grid with the jack-ten suited cell highlighted">
  <defs><path id="h" d="M0 -4.2C-1.6 -9 -9.6 -9 -9.6 -2.8C-9.6 2.6 -3 6.4 0 9.6C3 6.4 9.6 2.6 9.6 -2.8C9.6 -9 1.6 -9 0 -4.2Z"/>
    <filter id="shadow" x="-30%" y="-30%" width="160%" height="160%"><feDropShadow dx="0" dy="10" stdDeviation="12" flood-color="#000" flood-opacity="0.45"/></filter>
  </defs>
  <rect width="800" height="500" fill="#131824"/>

  <!-- the hand: jack and ten of hearts -->
  <g filter="url(#shadow)">
    <g transform="translate(168 254) rotate(-9)">
      <rect x="-85" y="-119" width="170" height="238" rx="14" fill="#f7f8fb"/><rect x="-85" y="-119" width="170" height="238" rx="14" fill="none" stroke="#000" stroke-opacity="0.08"/>
      <g fill="#d63c4a"><text x="-63" y="-86" font-family="Georgia, 'Times New Roman', serif" font-weight="700" font-size="30" text-anchor="middle">J</text><use href="#h" transform="translate(-63 -66) scale(0.95)"/></g>
      <g fill="#d63c4a" transform="rotate(180)"><text x="-63" y="-86" font-family="Georgia, 'Times New Roman', serif" font-weight="700" font-size="30" text-anchor="middle">J</text><use href="#h" transform="translate(-63 -66) scale(0.95)"/></g>
      <rect x="-42" y="-62" width="84" height="124" rx="6" fill="none" stroke="#d63c4a" stroke-opacity="0.35" stroke-width="2"/>
      <text x="0" y="22" font-family="Georgia, 'Times New Roman', serif" font-weight="700" font-size="76" fill="#d63c4a" text-anchor="middle">J</text>
      <use href="#h" fill="#d63c4a" transform="translate(0 44) scale(1.1)"/>
    </g>
    <g transform="translate(278 266) rotate(7)">
      <rect x="-85" y="-119" width="170" height="238" rx="14" fill="#f7f8fb"/><rect x="-85" y="-119" width="170" height="238" rx="14" fill="none" stroke="#000" stroke-opacity="0.08"/>
      <g fill="#d63c4a"><text x="-63" y="-86" font-family="Georgia, 'Times New Roman', serif" font-weight="700" font-size="26" text-anchor="middle">10</text><use href="#h" transform="translate(-63 -66) scale(0.95)"/></g>
      <g fill="#d63c4a" transform="rotate(180)"><text x="-63" y="-86" font-family="Georgia, 'Times New Roman', serif" font-weight="700" font-size="26" text-anchor="middle">10</text><use href="#h" transform="translate(-63 -66) scale(0.95)"/></g>
      <use href="#h" fill="#d63c4a" transform="translate(-30 -74) scale(1.05)"/><use href="#h" fill="#d63c4a" transform="translate(30 -74) scale(1.05)"/><use href="#h" fill="#d63c4a" transform="translate(-30 -25) scale(1.05)"/><use href="#h" fill="#d63c4a" transform="translate(30 -25) scale(1.05)"/><use href="#h" fill="#d63c4a" transform="translate(0 -50) scale(1.05)"/><use href="#h" fill="#d63c4a" transform="translate(-30 25) scale(1.05) rotate(180)"/><use href="#h" fill="#d63c4a" transform="translate(30 25) scale(1.05) rotate(180)"/><use href="#h" fill="#d63c4a" transform="translate(-30 74) scale(1.05) rotate(180)"/><use href="#h" fill="#d63c4a" transform="translate(30 74) scale(1.05) rotate(180)"/><use href="#h" fill="#d63c4a" transform="translate(0 50) scale(1.05) rotate(180)"/>
    </g>
  </g>

  <!-- 169 starting hands: suited above the diagonal, offsuit below; brighter = stronger -->
  <g><rect x="424" y="92" width="23" height="23" rx="4" fill="#adc2ff"/><rect x="450" y="92" width="23" height="23" rx="4" fill="#6480e1"/><rect x="476" y="92" width="23" height="23" rx="4" fill="#5b77dd"/><rect x="502" y="92" width="23" height="23" rx="4" fill="#516fd9"/><rect x="528" y="92" width="23" height="23" rx="4" fill="#3f5ed2"/><rect x="554" y="92" width="23" height="23" rx="4" fill="#3656ce"/><rect x="580" y="92" width="23" height="23" rx="4" fill="#3656ce"/><rect x="606" y="92" width="23" height="23" rx="4" fill="#3656ce"/><rect x="632" y="92" width="23" height="23" rx="4" fill="#3656ce"/><rect x="658" y="92" width="23" height="23" rx="4" fill="#3656ce"/><rect x="684" y="92" width="23" height="23" rx="4" fill="#3656ce"/><rect x="710" y="92" width="23" height="23" rx="4" fill="#3656ce"/><rect x="736" y="92" width="23" height="23" rx="4" fill="#3656ce"/><rect x="424" y="118" width="23" height="23" rx="4" fill="#516fd9"/><rect x="450" y="118" width="23" height="23" rx="4" fill="#88a1f0"/><rect x="476" y="118" width="23" height="23" rx="4" fill="#516fd9"/><rect x="502" y="118" width="23" height="23" rx="4" fill="#4867d6"/><rect x="528" y="118" width="23" height="23" rx="4" fill="#3f5ed2"/><rect x="554" y="118" width="23" height="23" rx="4" fill="#2b3757"/><rect x="580" y="118" width="23" height="23" rx="4" fill="#2b3757"/><rect x="606" y="118" width="23" height="23" rx="4" fill="#2b3757"/><rect x="632" y="118" width="23" height="23" rx="4" fill="#2b3757"/><rect x="658" y="118" width="23" height="23" rx="4" fill="#2b3757"/><rect x="684" y="118" width="23" height="23" rx="4" fill="#2b3757"/><rect x="710" y="118" width="23" height="23" rx="4" fill="#2b3757"/><rect x="736" y="118" width="23" height="23" rx="4" fill="#2b3757"/><rect x="424" y="144" width="23" height="23" rx="4" fill="#4867d6"/><rect x="450" y="144" width="23" height="23" rx="4" fill="#3f5ed2"/><rect x="476" y="144" width="23" height="23" rx="4" fill="#7690e8"/><rect x="502" y="144" width="23" height="23" rx="4" fill="#4867d6"/><rect x="528" y="144" width="23" height="23" rx="4" fill="#3f5ed2"/><rect x="554" y="144" width="23" height="23" rx="4" fill="#3656ce"/><rect x="580" y="144" width="23" height="23" rx="4" fill="#2b3757"/><rect x="606" y="144" width="23" height="23" rx="4" fill="#1d2436"/><rect x="632" y="144" width="23" height="23" rx="4" fill="#1d2436"/><rect x="658" y="144" width="23" height="23" rx="4" fill="#1d2436"/><rect x="684" y="144" width="23" height="23" rx="4" fill="#1d2436"/><rect x="710" y="144" width="23" height="23" rx="4" fill="#1d2436"/><rect x="736" y="144" width="23" height="23" rx="4" fill="#1d2436"/><rect x="424" y="170" width="23" height="23" rx="4" fill="#3f5ed2"/><rect x="450" y="170" width="23" height="23" rx="4" fill="#3656ce"/><rect x="476" y="170" width="23" height="23" rx="4" fill="#3656ce"/><rect x="502" y="170" width="23" height="23" rx="4" fill="#6480e1"/><rect x="528" y="170" width="23" height="23" rx="4" fill="#f2b544"/><rect x="554" y="170" width="23" height="23" rx="4" fill="#3f5ed2"/><rect x="580" y="170" width="23" height="23" rx="4" fill="#2b3757"/><rect x="606" y="170" width="23" height="23" rx="4" fill="#1d2436"/><rect x="632" y="170" width="23" height="23" rx="4" fill="#1d2436"/><rect x="658" y="170" width="23" height="23" rx="4" fill="#1d2436"/><rect x="684" y="170" width="23" height="23" rx="4" fill="#1d2436"/><rect x="710" y="170" width="23" height="23" rx="4" fill="#1d2436"/><rect x="736" y="170" width="23" height="23" rx="4" fill="#1d2436"/><rect x="424" y="196" width="23" height="23" rx="4" fill="#2b3757"/><rect x="450" y="196" width="23" height="23" rx="4" fill="#2b3757"/><rect x="476" y="196" width="23" height="23" rx="4" fill="#2b3757"/><rect x="502" y="196" width="23" height="23" rx="4" fill="#3656ce"/><rect x="528" y="196" width="23" height="23" rx="4" fill="#516fd9"/><rect x="554" y="196" width="23" height="23" rx="4" fill="#3f5ed2"/><rect x="580" y="196" width="23" height="23" rx="4" fill="#3656ce"/><rect x="606" y="196" width="23" height="23" rx="4" fill="#2b3757"/><rect x="632" y="196" width="23" height="23" rx="4" fill="#1d2436"/><rect x="658" y="196" width="23" height="23" rx="4" fill="#1d2436"/><rect x="684" y="196" width="23" height="23" rx="4" fill="#1d2436"/><rect x="710" y="196" width="23" height="23" rx="4" fill="#1d2436"/><rect x="736" y="196" width="23" height="23" rx="4" fill="#1d2436"/><rect x="424" y="222" width="23" height="23" rx="4" fill="#2b3757"/><rect x="450" y="222" width="23" height="23" rx="4" fill="#1d2436"/><rect x="476" y="222" width="23" height="23" rx="4" fill="#2b3757"/><rect x="502" y="222" width="23" height="23" rx="4" fill="#2b3757"/><rect x="528" y="222" width="23" height="23" rx="4" fill="#2b3757"/><rect x="554" y="222" width="23" height="23" rx="4" fill="#4867d6"/><rect x="580" y="222" width="23" height="23" rx="4" fill="#3f5ed2"/><rect x="606" y="222" width="23" height="23" rx="4" fill="#3656ce"/><rect x="632" y="222" width="23" height="23" rx="4" fill="#2b3757"/><rect x="658" y="222" width="23" height="23" rx="4" fill="#1d2436"/><rect x="684" y="222" width="23" height="23" rx="4" fill="#1d2436"/><rect x="710" y="222" width="23" height="23" rx="4" fill="#1d2436"/><rect x="736" y="222" width="23" height="23" rx="4" fill="#1d2436"/><rect x="424" y="248" width="23" height="23" rx="4" fill="#2b3757"/><rect x="450" y="248" width="23" height="23" rx="4" fill="#1d2436"/><rect x="476" y="248" width="23" height="23" rx="4" fill="#1d2436"/><rect x="502" y="248" width="23" height="23" rx="4" fill="#1d2436"/><rect x="528" y="248" width="23" height="23" rx="4" fill="#2b3757"/><rect x="554" y="248" width="23" height="23" rx="4" fill="#2b3757"/><rect x="580" y="248" width="23" height="23" rx="4" fill="#3f5ed2"/><rect x="606" y="248" width="23" height="23" rx="4" fill="#3656ce"/><rect x="632" y="248" width="23" height="23" rx="4" fill="#2b3757"/><rect x="658" y="248" width="23" height="23" rx="4" fill="#1d2436"/><rect x="684" y="248" width="23" height="23" rx="4" fill="#1d2436"/><rect x="710" y="248" width="23" height="23" rx="4" fill="#1d2436"/><rect x="736" y="248" width="23" height="23" rx="4" fill="#1d2436"/><rect x="424" y="274" width="23" height="23" rx="4" fill="#2b3757"/><rect x="450" y="274" width="23" height="23" rx="4" fill="#1d2436"/><rect x="476" y="274" width="23" height="23" rx="4" fill="#1d2436"/><rect x="502" y="274" width="23" height="23" rx="4" fill="#1d2436"/><rect x="528" y="274" width="23" height="23" rx="4" fill="#1d2436"/><rect x="554" y="274" width="23" height="23" rx="4" fill="#2b3757"/><rect x="580" y="274" width="23" height="23" rx="4" fill="#2b3757"/><rect x="606" y="274" width="23" height="23" rx="4" fill="#3656ce"/><rect x="632" y="274" width="23" height="23" rx="4" fill="#3656ce"/><rect x="658" y="274" width="23" height="23" rx="4" fill="#2b3757"/><rect x="684" y="274" width="23" height="23" rx="4" fill="#1d2436"/><rect x="710" y="274" width="23" height="23" rx="4" fill="#1d2436"/><rect x="736" y="274" width="23" height="23" rx="4" fill="#1d2436"/><rect x="424" y="300" width="23" height="23" rx="4" fill="#2b3757"/><rect x="450" y="300" width="23" height="23" rx="4" fill="#1d2436"/><rect x="476" y="300" width="23" height="23" rx="4" fill="#1d2436"/><rect x="502" y="300" width="23" height="23" rx="4" fill="#1d2436"/><rect x="528" y="300" width="23" height="23" rx="4" fill="#1d2436"/><rect x="554" y="300" width="23" height="23" rx="4" fill="#1d2436"/><rect x="580" y="300" width="23" height="23" rx="4" fill="#1d2436"/><rect x="606" y="300" width="23" height="23" rx="4" fill="#2b3757"/><rect x="632" y="300" width="23" height="23" rx="4" fill="#2b3757"/><rect x="658" y="300" width="23" height="23" rx="4" fill="#2b3757"/><rect x="684" y="300" width="23" height="23" rx="4" fill="#2b3757"/><rect x="710" y="300" width="23" height="23" rx="4" fill="#1d2436"/><rect x="736" y="300" width="23" height="23" rx="4" fill="#1d2436"/><rect x="424" y="326" width="23" height="23" rx="4" fill="#2b3757"/><rect x="450" y="326" width="23" height="23" rx="4" fill="#1d2436"/><rect x="476" y="326" width="23" height="23" rx="4" fill="#1d2436"/><rect x="502" y="326" width="23" height="23" rx="4" fill="#1d2436"/><rect x="528" y="326" width="23" height="23" rx="4" fill="#1d2436"/><rect x="554" y="326" width="23" height="23" rx="4" fill="#1d2436"/><rect x="580" y="326" width="23" height="23" rx="4" fill="#1d2436"/><rect x="606" y="326" width="23" height="23" rx="4" fill="#1d2436"/><rect x="632" y="326" width="23" height="23" rx="4" fill="#1d2436"/><rect x="658" y="326" width="23" height="23" rx="4" fill="#2b3757"/><rect x="684" y="326" width="23" height="23" rx="4" fill="#2b3757"/><rect x="710" y="326" width="23" height="23" rx="4" fill="#2b3757"/><rect x="736" y="326" width="23" height="23" rx="4" fill="#1d2436"/><rect x="424" y="352" width="23" height="23" rx="4" fill="#2b3757"/><rect x="450" y="352" width="23" height="23" rx="4" fill="#1d2436"/><rect x="476" y="352" width="23" height="23" rx="4" fill="#1d2436"/><rect x="502" y="352" width="23" height="23" rx="4" fill="#1d2436"/><rect x="528" y="352" width="23" height="23" rx="4" fill="#1d2436"/><rect x="554" y="352" width="23" height="23" rx="4" fill="#1d2436"/><rect x="580" y="352" width="23" height="23" rx="4" fill="#1d2436"/><rect x="606" y="352" width="23" height="23" rx="4" fill="#1d2436"/><rect x="632" y="352" width="23" height="23" rx="4" fill="#1d2436"/><rect x="658" y="352" width="23" height="23" rx="4" fill="#1d2436"/><rect x="684" y="352" width="23" height="23" rx="4" fill="#2b3757"/><rect x="710" y="352" width="23" height="23" rx="4" fill="#2b3757"/><rect x="736" y="352" width="23" height="23" rx="4" fill="#1d2436"/><rect x="424" y="378" width="23" height="23" rx="4" fill="#2b3757"/><rect x="450" y="378" width="23" height="23" rx="4" fill="#1d2436"/><rect x="476" y="378" width="23" height="23" rx="4" fill="#1d2436"/><rect x="502" y="378" width="23" height="23" rx="4" fill="#1d2436"/><rect x="528" y="378" width="23" height="23" rx="4" fill="#1d2436"/><rect x="554" y="378" width="23" height="23" rx="4" fill="#1d2436"/><rect x="580" y="378" width="23" height="23" rx="4" fill="#1d2436"/><rect x="606" y="378" width="23" height="23" rx="4" fill="#1d2436"/><rect x="632" y="378" width="23" height="23" rx="4" fill="#1d2436"/><rect x="658" y="378" width="23" height="23" rx="4" fill="#1d2436"/><rect x="684" y="378" width="23" height="23" rx="4" fill="#1d2436"/><rect x="710" y="378" width="23" height="23" rx="4" fill="#2b3757"/><rect x="736" y="378" width="23" height="23" rx="4" fill="#2b3757"/><rect x="424" y="404" width="23" height="23" rx="4" fill="#2b3757"/><rect x="450" y="404" width="23" height="23" rx="4" fill="#1d2436"/><rect x="476" y="404" width="23" height="23" rx="4" fill="#1d2436"/><rect x="502" y="404" width="23" height="23" rx="4" fill="#1d2436"/><rect x="528" y="404" width="23" height="23" rx="4" fill="#1d2436"/><rect x="554" y="404" width="23" height="23" rx="4" fill="#1d2436"/><rect x="580" y="404" width="23" height="23" rx="4" fill="#1d2436"/><rect x="606" y="404" width="23" height="23" rx="4" fill="#1d2436"/><rect x="632" y="404" width="23" height="23" rx="4" fill="#1d2436"/><rect x="658" y="404" width="23" height="23" rx="4" fill="#1d2436"/><rect x="684" y="404" width="23" height="23" rx="4" fill="#1d2436"/><rect x="710" y="404" width="23" height="23" rx="4" fill="#1d2436"/><rect x="736" y="404" width="23" height="23" rx="4" fill="#2b3757"/></g>
  <rect x="525" y="167" width="29" height="29" rx="6" fill="none" stroke="#f2b544" stroke-width="2"/>
  <g font-family="-apple-system, 'Segoe UI', Helvetica, Arial, sans-serif" font-size="17" font-weight="600" fill="#8c95ab"><text x="435.5" y="80" text-anchor="middle">A</text><text x="412" y="108.5" text-anchor="end">A</text><text x="461.5" y="80" text-anchor="middle">K</text><text x="412" y="134.5" text-anchor="end">K</text><text x="487.5" y="80" text-anchor="middle">Q</text><text x="412" y="160.5" text-anchor="end">Q</text><text x="513.5" y="80" text-anchor="middle">J</text><text x="412" y="186.5" text-anchor="end">J</text><text x="539.5" y="80" text-anchor="middle">T</text><text x="412" y="212.5" text-anchor="end">T</text><text x="565.5" y="80" text-anchor="middle">9</text><text x="412" y="238.5" text-anchor="end">9</text><text x="591.5" y="80" text-anchor="middle">8</text><text x="412" y="264.5" text-anchor="end">8</text><text x="617.5" y="80" text-anchor="middle">7</text><text x="412" y="290.5" text-anchor="end">7</text><text x="643.5" y="80" text-anchor="middle">6</text><text x="412" y="316.5" text-anchor="end">6</text><text x="669.5" y="80" text-anchor="middle">5</text><text x="412" y="342.5" text-anchor="end">5</text><text x="695.5" y="80" text-anchor="middle">4</text><text x="412" y="368.5" text-anchor="end">4</text><text x="721.5" y="80" text-anchor="middle">3</text><text x="412" y="394.5" text-anchor="end">3</text><text x="747.5" y="80" text-anchor="middle">2</text><text x="412" y="420.5" text-anchor="end">2</text></g>

</svg>
